<?xml version="1.0" standalone="no"?>
<!DOCTYPE svg PUBLIC "-//W3C//DTD SVG 20010904//EN"
 "http://www.w3.org/TR/2001/REC-SVG-20010904/DTD/svg10.dtd">
<svg version="1.0" xmlns="http://www.w3.org/2000/svg"
 width="1200.000000pt" height="1200.000000pt" viewBox="0 0 1200.000000 1200.000000"
 preserveAspectRatio="xMidYMid meet">

<g transform="translate(0.000000,1200.000000) scale(0.100000,-0.100000)"
fill="#000000" stroke="none">
<path d="M7671 10219 c-131 -26 -273 -96 -358 -177 -83 -80 -175 -224 -291
-457 -144 -289 -174 -357 -442 -1010 -277 -672 -358 -879 -440 -1120 -115
-339 -301 -777 -406 -957 l-47 -80 -39 71 c-59 106 -138 302 -207 517 -467
1438 -775 2301 -937 2628 -64 127 -130 223 -174 252 -155 103 -434 110 -629
17 -105 -50 -149 -98 -220 -245 -161 -331 -304 -921 -351 -1448 -11 -124 -116
-775 -435 -2690 -192 -1157 -195 -1173 -202 -1400 -7 -212 7 -305 65 -420 43
-87 108 -146 196 -179 82 -30 275 -46 380 -31 200 28 295 124 377 380 52 164
87 340 305 1555 35 198 84 459 109 580 66 326 89 535 125 1130 11 182 23 376
27 433 3 57 10 99 14 95 4 -4 46 -100 92 -213 201 -486 485 -1126 659 -1480
71 -145 140 -304 170 -389 181 -521 377 -798 612 -866 105 -31 241 7 339 95
114 101 196 244 340 590 47 113 151 338 230 500 167 340 222 463 357 795 130
318 507 1103 545 1135 24 20 51 -400 65 -1025 23 -1038 44 -1534 100 -2395 32
-487 109 -817 220 -944 65 -74 206 -111 415 -109 257 2 413 66 467 192 50 117
63 204 62 421 0 173 -5 241 -32 438 -45 333 -62 551 -132 1747 -22 374 -45
739 -51 810 -70 876 -211 2334 -244 2525 -40 231 -97 454 -138 535 -49 98
-129 161 -241 191 -56 15 -186 17 -255 3z"/>
<path d="M2395 2457 c-57 -32 -93 -107 -110 -233 -18 -122 -11 -212 22 -326
30 -100 66 -151 127 -179 51 -23 78 -24 122 -3 41 20 93 118 102 190 7 69 -14
53 -49 -36 -34 -88 -61 -120 -87 -104 -73 46 -125 331 -91 496 27 126 67 180
119 158 32 -13 48 -42 28 -49 -24 -8 -78 -69 -78 -88 0 -10 7 -28 15 -39 30
-44 103 3 114 73 5 32 10 38 34 41 37 4 35 22 -3 22 -23 0 -31 5 -36 25 -17
69 -147 99 -229 52z m184 -147 c-10 -28 -39 -43 -39 -19 0 20 21 49 35 49 11
0 12 -6 4 -30z"/>
<path d="M6026 2439 c-14 -11 -33 -34 -41 -49 -20 -38 -19 -135 1 -193 l16
-47 -60 -59 c-94 -92 -115 -177 -62 -251 28 -40 70 -60 136 -67 64 -7 136 10
187 43 l37 24 29 -21 c31 -23 105 -37 115 -21 6 9 -34 50 -83 84 l-23 16 26
77 c43 127 33 165 -41 165 -28 0 -30 -3 -47 -80 -11 -45 -22 -79 -25 -78 -4 2
-24 22 -45 45 l-37 42 29 40 c16 22 39 67 52 100 26 71 22 146 -10 199 -33 54
-106 69 -154 31z m82 -41 c18 -18 14 -97 -7 -143 -20 -46 -48 -73 -60 -59 -15
17 -31 76 -31 116 0 71 60 124 98 86z m43 -450 c18 -24 18 -30 6 -60 -19 -45
-76 -76 -114 -62 -25 8 -28 15 -31 59 -2 42 2 58 28 99 l31 49 31 -29 c16 -16
39 -41 49 -56z"/>
<path d="M7710 2207 l0 -184 -49 -65 c-46 -61 -72 -83 -84 -72 -3 3 -2 52 1
109 5 101 4 106 -22 145 -35 54 -70 54 -128 3 -26 -24 -43 -33 -45 -26 -11 32
-41 55 -78 60 -35 4 -44 1 -69 -26 -32 -33 -46 -39 -46 -18 0 6 -11 26 -24 42
-32 39 -41 28 -55 -59 -9 -64 -58 -185 -94 -231 -12 -16 -17 -17 -30 -7 -12
10 -16 42 -19 148 -3 121 -5 137 -22 150 -32 23 -54 17 -61 -16 -9 -40 -20
-45 -39 -15 -13 20 -25 25 -59 25 -53 0 -98 -27 -134 -81 -24 -37 -28 -53 -28
-113 0 -58 4 -77 23 -103 45 -64 131 -49 180 31 15 25 30 46 33 46 4 0 9 -18
13 -41 7 -44 52 -99 81 -99 32 0 74 31 100 72 25 41 26 41 20 12 -13 -66 37
-117 76 -78 12 13 21 47 29 104 15 118 25 151 60 198 31 44 54 53 64 27 3 -9
1 -75 -5 -147 -12 -146 -8 -172 22 -189 40 -21 57 12 68 134 10 110 32 172 62
172 11 0 15 -25 19 -123 5 -115 7 -125 28 -143 18 -14 33 -17 60 -13 46 7 72
28 114 88 l33 49 7 -78 c9 -92 28 -128 65 -123 48 6 67 47 71 157 4 93 6 101
32 126 17 16 33 24 40 20 18 -11 6 -167 -18 -238 -19 -57 -19 -58 0 -68 46
-25 118 28 188 139 l48 75 7 -51 c12 -89 68 -148 129 -137 38 7 62 29 96 89
l29 49 7 -39 c29 -161 141 -166 224 -11 l37 68 6 -39 c10 -59 46 -105 90 -115
55 -13 93 13 137 96 19 37 38 67 41 67 4 0 10 -17 14 -37 4 -22 20 -50 40 -70
32 -32 57 -39 120 -34 33 3 83 65 100 126 13 43 23 58 42 66 14 5 28 8 30 5 3
-2 1 -42 -4 -88 -12 -126 -8 -145 32 -158 52 -17 71 -1 85 67 7 32 15 67 20
78 12 33 101 136 111 130 5 -4 9 -46 9 -94 0 -104 13 -149 47 -162 35 -13 39
-12 77 22 40 34 78 98 132 215 35 78 35 79 9 54 -15 -14 -44 -59 -66 -100 -49
-92 -74 -124 -94 -116 -19 7 -19 19 1 112 16 80 12 127 -14 157 -34 39 -89 10
-158 -84 -40 -55 -54 -52 -54 8 0 25 -8 38 -35 58 -43 34 -67 30 -76 -12 -9
-43 -26 -63 -55 -63 -21 0 -24 5 -24 35 0 52 -25 92 -71 115 -35 18 -45 20
-77 9 -64 -20 -86 -44 -136 -145 -58 -118 -106 -194 -123 -194 -27 0 -36 43
-29 144 8 120 -3 146 -58 146 -43 0 -54 -14 -62 -81 -4 -37 -22 -85 -53 -145
-39 -76 -50 -89 -71 -89 l-25 0 2 164 c2 100 7 169 13 175 6 6 25 16 43 22 40
13 33 29 -10 25 -32 -2 -33 -1 -33 36 0 78 -59 113 -85 51 -7 -18 -16 -49 -20
-70 -6 -31 -11 -37 -40 -42 -34 -7 -60 -28 -48 -40 4 -3 22 -3 41 0 33 6 34 6
29 -22 -3 -16 -8 -47 -12 -69 -8 -55 -23 -91 -62 -153 -60 -95 -84 -59 -75
108 5 110 -4 130 -63 130 -37 0 -55 -20 -55 -60 0 -24 -48 -119 -80 -160 l-20
-25 6 70 c8 91 -16 147 -70 165 -40 13 -57 7 -100 -39 -16 -17 -33 -28 -38
-25 -4 3 -8 24 -9 47 0 23 -6 75 -13 115 -14 80 -55 144 -95 150 -21 3 -21 2
-21 -181z m1470 -86 c15 -30 13 -81 -5 -81 -21 0 -36 34 -29 69 7 36 19 39 34
12z m-2335 -21 c30 -58 13 -129 -48 -197 -29 -32 -65 -30 -78 4 -26 69 38 223
92 223 10 0 25 -13 34 -30z m2329 -100 c19 0 20 -6 4 -51 -26 -76 -63 -99 -92
-57 -19 26 -21 115 -5 152 l12 25 32 -35 c18 -19 40 -34 49 -34z"/>
<path d="M3885 2308 c-7 -18 -16 -49 -20 -70 -6 -31 -11 -37 -40 -42 -34 -7
-60 -28 -48 -40 4 -3 22 -3 40 0 l34 6 -7 -43 c-7 -50 -70 -191 -102 -229 -36
-44 -47 -17 -50 136 -3 130 -4 135 -28 150 -31 21 -51 13 -59 -26 l-7 -32 -27
26 c-20 19 -38 26 -67 26 -63 0 -104 -38 -166 -155 -77 -144 -138 -201 -176
-163 -20 20 -14 56 17 99 37 51 65 131 56 161 -19 60 -68 74 -125 35 -46 -30
-70 -75 -77 -141 -9 -90 4 -146 44 -183 30 -29 41 -33 88 -33 64 0 100 25 142
101 30 52 43 61 43 29 0 -11 13 -34 29 -52 55 -61 140 -35 188 57 l16 29 21
-59 c15 -44 28 -63 48 -73 53 -25 95 2 146 96 l29 53 7 -56 c21 -179 138 -196
226 -32 l37 68 6 -39 c10 -59 46 -105 90 -115 59 -14 93 12 147 115 l46 87 23
-89 c20 -78 26 -90 51 -100 61 -25 86 2 126 135 65 218 73 250 58 231 -11 -16
-68 -155 -98 -240 -11 -33 -25 -6 -52 107 -29 119 -44 144 -89 152 -51 9 -58
-3 -44 -72 12 -56 11 -65 -10 -114 -27 -66 -82 -149 -98 -149 -27 0 -36 43
-29 144 8 120 -3 146 -58 146 -43 0 -54 -14 -62 -81 -4 -37 -22 -85 -53 -145
-39 -76 -50 -89 -71 -89 l-25 0 2 164 c2 100 7 169 13 175 6 6 24 16 40 21 41
14 37 30 -5 26 -34 -2 -35 -2 -35 36 0 78 -59 113 -85 51z m-690 -224 c-1 -37
-7 -59 -25 -84 l-25 -35 -3 61 c-3 73 11 117 36 112 13 -3 17 -14 17 -54z
m369 27 c10 -11 20 -37 23 -59 5 -34 0 -50 -31 -100 -36 -60 -51 -72 -87 -72
-51 0 -31 164 29 233 20 22 45 22 66 -2z"/>
<path d="M4992 2327 c-6 -6 -17 -36 -24 -66 -12 -48 -17 -54 -51 -66 -46 -16
-51 -20 -42 -35 4 -6 20 -8 39 -5 l33 7 -12 -74 c-21 -137 -114 -277 -139
-211 -4 10 -6 68 -5 130 2 126 -4 143 -56 143 -49 0 -59 -20 -63 -132 -6 -141
21 -205 92 -222 47 -11 83 11 123 76 l37 60 11 -48 c19 -84 45 -114 97 -114
46 0 83 35 127 120 l43 82 18 -38 c23 -52 44 -67 88 -66 38 1 45 7 104 83 l27
34 -6 -85 c-6 -76 -9 -88 -34 -113 -32 -32 -59 -111 -52 -150 7 -36 37 -61 66
-53 60 15 109 82 121 169 6 39 11 47 29 47 21 1 21 1 3 15 -17 13 -18 25 -14
151 5 134 5 138 -18 161 -13 12 -34 23 -47 23 -21 0 -25 -6 -30 -39 -6 -50
-42 -122 -83 -169 l-32 -37 -12 30 c-12 30 -9 70 12 177 15 72 3 103 -42 113
-45 10 -57 -6 -79 -105 -18 -85 -94 -253 -125 -279 -9 -7 -23 -11 -31 -7 -12
4 -15 28 -15 129 0 68 3 145 6 170 6 42 9 46 51 62 50 19 49 31 -3 26 -33 -2
-34 -2 -34 36 0 57 -51 103 -78 70z m431 -604 c-2 -27 -9 -60 -15 -76 -9 -23
-13 -25 -25 -15 -19 16 -13 84 12 121 24 37 33 26 28 -30z"/>
<path d="M4146 2276 c-27 -22 -14 -64 22 -68 31 -4 69 9 75 26 14 36 -62 69
-97 42z"/>
<path d="M4715 2277 c-27 -21 -13 -65 23 -69 63 -8 95 35 50 66 -28 20 -48 20
-73 3z"/>
<path d="M8186 2271 c-34 -37 18 -80 73 -60 33 13 38 39 12 61 -30 23 -63 23
-85 -1z"/>
<path d="M8716 2276 c-27 -22 -14 -64 22 -68 31 -4 69 9 75 26 14 36 -62 69
-97 42z"/>
<path d="M2944 2170 c-29 -11 -81 -77 -95 -117 -12 -36 -29 -44 -29 -13 0 11
-7 37 -16 59 -16 42 -66 76 -99 69 -17 -3 -20 -11 -17 -53 5 -82 42 -319 51
-328 10 -10 88 -14 97 -4 4 4 11 51 15 105 9 117 30 181 75 229 l34 36 23 -21
c13 -12 26 -22 30 -22 13 0 7 39 -9 54 -17 18 -29 19 -60 6z"/>
</g>
</svg>
